<?xml version="1.0" encoding="UTF-8" standalone="no"?>
<!DOCTYPE svg PUBLIC "-//W3C//DTD SVG 1.1//EN" "http://www.w3.org/Graphics/SVG/1.1/DTD/svg11.dtd">
<svg width="100%" height="100%" viewBox="0 0 448 71" version="1.1" xmlns="http://www.w3.org/2000/svg" xmlns:xlink="http://www.w3.org/1999/xlink" xml:space="preserve" xmlns:serif="http://www.serif.com/" style="fill-rule:evenodd;clip-rule:evenodd;stroke-linejoin:round;stroke-miterlimit:2;">
    <g transform="matrix(1,0,0,1,-184.65,-145.349)">
        <g transform="matrix(1,0,0,1,-239.908,-89.1536)">
            <g transform="matrix(100,0,0,100,417.458,303.503)">
                <path d="M0.312,-0.68L0.146,-0.68C0.104,-0.68 0.071,-0.645 0.071,-0.603L0.071,-0.071C0.071,-0.028 0.104,0.006 0.148,0.006C0.192,0.006 0.225,-0.028 0.225,-0.071L0.225,-0.211L0.312,-0.211C0.482,-0.211 0.561,-0.329 0.561,-0.445C0.561,-0.561 0.482,-0.68 0.312,-0.68ZM0.294,-0.347L0.225,-0.347L0.225,-0.544L0.294,-0.544C0.369,-0.544 0.403,-0.499 0.403,-0.446C0.403,-0.393 0.369,-0.347 0.294,-0.347Z" style="fill-rule:nonzero;"/>
            </g>
            <g transform="matrix(100,0,0,100,479.758,303.503)">
                <path d="M0.391,0.01C0.586,0.01 0.744,-0.133 0.744,-0.34C0.744,-0.546 0.586,-0.69 0.391,-0.69C0.195,-0.69 0.037,-0.546 0.037,-0.34C0.037,-0.133 0.195,0.01 0.391,0.01ZM0.391,-0.128C0.287,-0.128 0.197,-0.207 0.197,-0.34C0.197,-0.473 0.287,-0.552 0.391,-0.552C0.495,-0.552 0.584,-0.473 0.584,-0.34C0.584,-0.207 0.495,-0.128 0.391,-0.128Z" style="fill-rule:nonzero;"/>
            </g>
            <g transform="matrix(100,0,0,100,560.858,303.503)">
                <path d="M0.267,0.008C0.405,0.008 0.512,-0.065 0.512,-0.201C0.512,-0.324 0.425,-0.371 0.333,-0.405C0.263,-0.431 0.205,-0.447 0.205,-0.496C0.205,-0.529 0.235,-0.555 0.288,-0.555C0.324,-0.555 0.352,-0.545 0.377,-0.536C0.39,-0.531 0.408,-0.523 0.429,-0.523C0.465,-0.523 0.489,-0.556 0.489,-0.591C0.489,-0.622 0.466,-0.646 0.436,-0.661C0.406,-0.677 0.362,-0.69 0.287,-0.69C0.138,-0.69 0.054,-0.604 0.054,-0.485C0.054,-0.376 0.121,-0.322 0.239,-0.277C0.302,-0.253 0.362,-0.239 0.362,-0.192C0.362,-0.155 0.327,-0.128 0.273,-0.128C0.219,-0.128 0.186,-0.147 0.157,-0.165C0.139,-0.177 0.121,-0.188 0.098,-0.188C0.06,-0.188 0.029,-0.16 0.029,-0.121C0.029,-0.087 0.048,-0.065 0.077,-0.046C0.132,-0.011 0.204,0.008 0.267,0.008Z" style="fill-rule:nonzero;"/>
            </g>
            <g transform="matrix(100,0,0,100,618.258,303.503)">
                <path d="M0.535,-0.68L0.082,-0.68C0.044,-0.68 0.015,-0.651 0.015,-0.612C0.015,-0.573 0.044,-0.544 0.082,-0.544L0.231,-0.544L0.231,-0.072C0.231,-0.029 0.264,0.005 0.308,0.005C0.351,0.005 0.385,-0.029 0.385,-0.072L0.385,-0.544L0.535,-0.544C0.572,-0.544 0.601,-0.573 0.601,-0.612C0.601,-0.651 0.572,-0.68 0.535,-0.68Z" style="fill-rule:nonzero;"/>
            </g>
            <g transform="matrix(100,0,0,100,683.358,303.503)">
                <path d="M0.342,0.011C0.493,0.011 0.608,-0.069 0.608,-0.269L0.608,-0.615C0.608,-0.655 0.575,-0.687 0.534,-0.687C0.493,-0.687 0.455,-0.655 0.455,-0.615L0.455,-0.27C0.452,-0.17 0.42,-0.125 0.343,-0.125C0.268,-0.126 0.225,-0.168 0.22,-0.268L0.22,-0.609C0.22,-0.651 0.186,-0.685 0.143,-0.685C0.1,-0.685 0.066,-0.651 0.066,-0.609L0.066,-0.267C0.066,-0.067 0.19,0.011 0.342,0.011Z" style="fill-rule:nonzero;"/>
            </g>
            <g transform="matrix(100,0,0,100,754.336,303.448)">
                <path d="M0.569,-0.126L0.44,-0.272C0.509,-0.308 0.558,-0.374 0.558,-0.464C0.558,-0.578 0.476,-0.68 0.31,-0.68L0.146,-0.68C0.104,-0.68 0.071,-0.645 0.071,-0.606L0.071,-0.072C0.071,-0.029 0.104,0.005 0.147,0.005C0.191,0.005 0.225,-0.029 0.225,-0.072L0.225,-0.241L0.282,-0.241L0.452,-0.03C0.473,-0.004 0.495,0.005 0.518,0.005C0.559,0.005 0.592,-0.028 0.592,-0.07C0.592,-0.096 0.581,-0.112 0.569,-0.126ZM0.225,-0.544L0.297,-0.544C0.359,-0.544 0.399,-0.514 0.399,-0.455C0.399,-0.398 0.359,-0.369 0.297,-0.369L0.225,-0.369L0.225,-0.544Z" style="fill-rule:nonzero;"/>
            </g>
            <g transform="matrix(100,0,0,100,820.036,303.448)">
                <path d="M0.447,-0.136L0.225,-0.136L0.225,-0.278L0.406,-0.278C0.443,-0.278 0.472,-0.307 0.472,-0.342C0.472,-0.377 0.443,-0.406 0.406,-0.406L0.225,-0.406L0.225,-0.544L0.436,-0.544C0.475,-0.544 0.505,-0.572 0.505,-0.611C0.505,-0.65 0.475,-0.68 0.436,-0.68L0.145,-0.68C0.103,-0.68 0.071,-0.646 0.071,-0.603L0.071,-0.076C0.071,-0.033 0.103,-0 0.145,-0L0.447,-0C0.486,-0 0.516,-0.03 0.516,-0.069C0.516,-0.108 0.486,-0.136 0.447,-0.136Z" style="fill-rule:nonzero;"/>
            </g>
        </g>
    </g>
</svg>
